<svg xmlns="http://www.w3.org/2000/svg" width="81.855" height="81.678" viewBox="0 0 81.855 81.678"><defs><style>.a{fill:#2b9ce6;}</style></defs><g transform="translate(0 -0.516)"><g transform="translate(0 0.516)"><g transform="translate(0 0)"><rect class="a" width="8.203" height="2.734" transform="translate(58.787 54.511)"/><rect class="a" width="8.203" height="2.734" transform="translate(47.85 54.511)"/><rect class="a" width="8.203" height="2.734" transform="translate(36.913 54.511)"/><path class="a" d="M80.643,28.782,53.592,1.726A4.084,4.084,0,0,0,50.685.516h-.012a4.045,4.045,0,0,0-2.883,1.21l-28.7,28.692H4.1a4.1,4.1,0,0,0-4.1,4.1V72.8a4.1,4.1,0,0,0,4.1,4.1H24.357l4.08,4.084a4.084,4.084,0,0,0,2.907,1.21h.011a4.047,4.047,0,0,0,2.885-1.21L38.326,76.9h31.4a4.1,4.1,0,0,0,4.1-4.1V41.4l6.811-6.811a4.08,4.08,0,0,0,.007-5.809ZM63.252,15.256,48.09,30.418H36.481L57.447,9.452ZM49.726,3.654a1.348,1.348,0,0,1,1.906-.023l.023.023,3.859,3.865-22.9,22.9H22.96ZM32.3,79.057a1.33,1.33,0,0,1-.957.41,1.367,1.367,0,0,1-.973-.41L28.225,76.9H34.46ZM71.091,72.8a1.367,1.367,0,0,1-1.367,1.367H4.1A1.367,1.367,0,0,1,2.734,72.8V53.659H71.091Zm0-21.874H2.734v-8.2H71.091Zm0-10.937H2.734V34.519A1.367,1.367,0,0,1,4.1,33.152H69.724a1.367,1.367,0,0,1,1.367,1.367Zm7.619-7.337h0l-4.885,4.885V34.519a4.1,4.1,0,0,0-4.1-4.1H51.951L65.18,17.19,78.7,30.715a1.367,1.367,0,0,1,.41.978A1.34,1.34,0,0,1,78.71,32.651Z" transform="translate(0 -0.516)"/><path class="a" d="M32.841,369.1a5.462,5.462,0,0,0,.559-.559,5.421,5.421,0,0,0,7.2.927,5.559,5.559,0,0,0,2.373-4.506A5.469,5.469,0,0,0,37.5,359.49a4.144,4.144,0,0,0-.809.068l-.036.01h-.04a5.4,5.4,0,0,0-3.217,1.816,5.468,5.468,0,1,0-.559,7.713Zm4.315-6.844a1.654,1.654,0,0,1,.346-.029,2.734,2.734,0,0,1,2.734,2.734,2.681,2.681,0,0,1-.537,1.6c-.049.067-.088.137-.144.206-.01.011-.023.018-.034.029a2.718,2.718,0,1,1-2.365-4.544Zm-7.857-.029a2.734,2.734,0,1,1-2.734,2.734A2.734,2.734,0,0,1,29.3,362.224Z" transform="translate(-19.729 -298.144)"/></g></g></g></svg>