<svg xmlns="http://www.w3.org/2000/svg" width="82.14" height="82.141" viewBox="0 0 82.14 82.141"><defs><style>.a{fill:#2b9ce6;}</style></defs><g transform="translate(-0.001)"><g transform="translate(40.363 38.57)"><path class="a" d="M254.326,240.889a1.6,1.6,0,1,0,0,2.268A1.6,1.6,0,0,0,254.326,240.889Z" transform="translate(-251.587 -240.418)"/></g><g transform="translate(49.831 16.27)"><path class="a" d="M324.293,103.766a8.022,8.022,0,1,0,0,11.344A8.018,8.018,0,0,0,324.293,103.766Zm-2.269,9.075a4.813,4.813,0,1,1,0-6.807A4.819,4.819,0,0,1,322.024,112.842Z" transform="translate(-310.603 -101.415)"/></g><g transform="translate(15.405 0)"><g transform="translate(0 0)"><path class="a" d="M162.284.47A1.6,1.6,0,0,0,161.092,0,71.27,71.27,0,0,0,141.826,3.99a53.713,53.713,0,0,0-20.381,12.361C120.258,17.538,119.1,18.8,118,20.1c-5.238-3.083-9.435-2.116-12.088-.7-6.109,3.27-9.891,12.147-9.891,18.5a1.6,1.6,0,0,0,2.739,1.134,10.213,10.213,0,0,1,8.494-2.85l.562.562a56.43,56.43,0,0,0-2.65,7.792,4.541,4.541,0,0,0,.194,2.787,15.192,15.192,0,0,0-4.332,3.055c-4.13,4.13-4.968,14.194-5,14.621a1.6,1.6,0,0,0,1.6,1.731q.063,0,.126,0c.426-.034,10.491-.872,14.621-5a15.194,15.194,0,0,0,3.054-4.331,4.531,4.531,0,0,0,2.788.193A56.436,56.436,0,0,0,126,54.942l.562.562A10.214,10.214,0,0,1,123.715,64a1.6,1.6,0,0,0,1.134,2.739c6.35,0,15.227-3.782,18.5-9.891,1.42-2.653,2.387-6.85-.7-12.088,1.307-1.1,2.566-2.26,3.753-3.447a53.718,53.718,0,0,0,12.361-20.381,71.268,71.268,0,0,0,3.989-19.267A1.6,1.6,0,0,0,162.284.47ZM99.6,34.454c1-4.823,3.891-10.115,7.819-12.217,2.624-1.4,5.493-1.267,8.543.4a64.867,64.867,0,0,0-6.74,10.987,1.692,1.692,0,0,0-.849-.5A13.712,13.712,0,0,0,99.6,34.454ZM110.1,59.46C107.9,61.666,102.72,62.83,99.45,63.3c.475-3.271,1.639-8.445,3.845-10.651a11.561,11.561,0,0,1,4.107-2.7l5.4,5.4A11.559,11.559,0,0,1,110.1,59.46Zm7.314-4.978a1.505,1.505,0,0,1-1.4-.455l-3.142-3.142-4.143-4.143a1.506,1.506,0,0,1-.456-1.4,52.093,52.093,0,0,1,2-6.127L123.542,52.48A52.061,52.061,0,0,1,117.415,54.483Zm23.1.848c-2.1,3.927-7.394,6.822-12.217,7.818a13.655,13.655,0,0,0,1.315-8.811,1.675,1.675,0,0,0-.488-.81,64.89,64.89,0,0,0,10.987-6.741C141.784,49.838,141.922,52.707,140.518,55.331Zm3.617-16.29a58.237,58.237,0,0,1-4.627,4.151,61.638,61.638,0,0,1-12.789,7.928L111.635,36.036a61.628,61.628,0,0,1,7.928-12.789,58.223,58.223,0,0,1,4.151-4.627A50.025,50.025,0,0,1,141.95,7.361L155.393,20.8A50.021,50.021,0,0,1,144.135,39.041Zm12.413-21.62L145.334,6.207a72.128,72.128,0,0,1,14.077-2.864A72.139,72.139,0,0,1,156.547,17.421Z" transform="translate(-96.018 0)"/></g></g><g transform="translate(31.288 65.796)"><path class="a" d="M202.3,410.591a1.6,1.6,0,0,0-2.269,0l-4.537,4.539a1.6,1.6,0,1,0,2.269,2.268l4.537-4.539A1.6,1.6,0,0,0,202.3,410.591Z" transform="translate(-195.021 -410.121)"/></g><g transform="translate(8.599 43.108)"><path class="a" d="M60.869,269.171a1.6,1.6,0,0,0-2.269,0l-4.539,4.537a1.6,1.6,0,1,0,2.268,2.269l4.539-4.537A1.6,1.6,0,0,0,60.869,269.171Z" transform="translate(-53.592 -268.701)"/></g><g transform="translate(13.614 68.066)"><path class="a" d="M98.458,424.741a1.6,1.6,0,0,0-2.269,0L85.321,435.607a1.6,1.6,0,1,0,2.269,2.269L98.458,427.01A1.6,1.6,0,0,0,98.458,424.741Z" transform="translate(-84.851 -424.271)"/></g><g transform="translate(0.779 68.066)"><path class="a" d="M18.458,424.741a1.6,1.6,0,0,0-2.269,0L5.321,435.607a1.6,1.6,0,1,0,2.269,2.269L18.458,427.01A1.6,1.6,0,0,0,18.458,424.741Z" transform="translate(-4.851 -424.271)"/></g><g transform="translate(0.001 54.452)"><path class="a" d="M13.606,339.88a1.6,1.6,0,0,0-2.269,0L.471,350.748a1.6,1.6,0,0,0,2.269,2.269l10.866-10.868A1.6,1.6,0,0,0,13.606,339.88Z" transform="translate(-0.001 -339.41)"/></g><g transform="translate(44.901 31.764)"><path class="a" d="M284.879,198.46a1.6,1.6,0,0,0-2.269,0l-2.268,2.268A1.6,1.6,0,0,0,282.61,203l2.268-2.269A1.6,1.6,0,0,0,284.879,198.46Z" transform="translate(-279.871 -197.99)"/></g></g></svg>