<svg xmlns="http://www.w3.org/2000/svg" width="69.141" height="69.141" viewBox="0 0 69.141 69.141"><defs><style>.a{fill:#2b9ce6;}</style></defs><path class="a" d="M39.487,40.928a1.441,1.441,0,0,1-1.44-1.44V33.726A15.865,15.865,0,0,0,22.2,17.881H16.44a1.44,1.44,0,0,1,0-2.881H22.2A18.747,18.747,0,0,1,40.928,33.726v5.762A1.441,1.441,0,0,1,39.487,40.928Z" transform="translate(28.213 28.213)"/><path class="a" d="M26.523,32.164a1.429,1.429,0,0,1-.936-.346L15.5,23.176a1.441,1.441,0,0,1,0-2.189l10.083-8.643a1.441,1.441,0,1,1,1.873,2.189l-8.807,7.548,8.807,7.548a1.44,1.44,0,0,1-.936,2.535Z" transform="translate(28.213 22.572)"/><path class="a" d="M45.653,44.451H5.321A4.327,4.327,0,0,1,1,40.13V8.44A1.441,1.441,0,0,1,2.44,7H51.415a1.441,1.441,0,0,1,1.44,1.44v8.815a1.44,1.44,0,1,1-2.881,0V9.881H3.881V40.13a1.445,1.445,0,0,0,1.44,1.44H45.653a1.44,1.44,0,0,1,0,2.881Z" transform="translate(1.881 13.166)"/><path class="a" d="M22.845,12.881H8.44A1.44,1.44,0,1,1,8.44,10h14.4a1.44,1.44,0,1,1,0,2.881Z" transform="translate(13.166 18.809)"/><path class="a" d="M56.177,17.4H1.44A1.441,1.441,0,0,1,0,15.964V4.44A1.441,1.441,0,0,1,1.44,3H56.177a1.441,1.441,0,0,1,1.44,1.44V15.964A1.441,1.441,0,0,1,56.177,17.4Zm-53.3-2.881H54.737V5.881H2.881Z" transform="translate(0 5.643)"/><path class="a" d="M56.176,11.523a1.447,1.447,0,0,1-1.02-.421L46.937,2.881H10.678L2.459,11.1A1.44,1.44,0,0,1,.422,9.066L9.065.423A1.43,1.43,0,0,1,10.082,0H47.533a1.451,1.451,0,0,1,1.02.421L57.2,9.063a1.442,1.442,0,0,1-1.02,2.46Z" transform="translate(0.001 0)"/></svg>